# xmcd
#
# Track frame offsets:
#	150
#	13412
#	31091
#	47243
#	59682
#	72069
#	88624
#	106784
#	126423
#	144550
#	162231
#	175549
#	191353
#	211508
#	222357
#	241911
#	261185
#	279171
#	293404
#	306561
#
# Disc length: 4346 seconds
#
# Revision: 0
# Processed by: cddbd v1.4PL0 Copyright (c) Steve Scherf et al.
# Submitted via: audiograbber 1.80
#
DISCID=1d10f814
DTITLE=Country Music Cd (Homemd) - December 2000
DYEAR=1900
DGENRE=
TTITLE0=Tanya Tucker - A Blue Guitar
TTITLE1=Chris Whitley - Kick The Stones
TTITLE2=Shania Twain - Honey I'm Home
TTITLE3=Clint Black - Good Run Of Bad Luck
TTITLE4=Pam Tillis - I Was Blown Away
TTITLE5=Alan Jackson - Mercury Blues
TTITLE6=Garth Brooks - Fit For A King
TTITLE7=Tina Turner - Easy Lovin' You
TTITLE8=Pam Tillis - Maybe It Was Mephis
TTITLE9=Garth Brooks - Rodeo
TTITLE10=Aaron Tippin - Kiss This
TTITLE11=Lee Ann Womack - Does My Ring Burn Your Finger
TTITLE12=Lonestar - Amazed
TTITLE13=Loretta Lynn - These Boots Are Made For Walking
TTITLE14=Montgomery Centry - Daddy Won't Sell
TTITLE15=Alan Jackson and Jimmy Buffet - Margaritaville
TTITLE16=H. Williams, Chad Brooks and George Jones - A Country Boy
TTITLE17=Pam Tillis - Shake The Sugar Tree
TTITLE18=Sawyer Brown - Six Days On The Road
TTITLE19=John Fogerty - A Hundred And Ten In The Shade
EXTD=
EXTT0=
EXTT1=
EXTT2=
EXTT3=
EXTT4=
EXTT5=
EXTT6=
EXTT7=
EXTT8=
EXTT9=
EXTT10=
EXTT11=
EXTT12=
EXTT13=
EXTT14=
EXTT15=
EXTT16=
EXTT17=
EXTT18=
EXTT19=
PLAYORDER=
